<?xml version="1.0" standalone="no"?>
<!DOCTYPE svg PUBLIC "-//W3C//DTD SVG 20010904//EN"
 "http://www.w3.org/TR/2001/REC-SVG-20010904/DTD/svg10.dtd">
<svg version="1.0" xmlns="http://www.w3.org/2000/svg"
 width="512.000000pt" height="512.000000pt" viewBox="0 0 512.000000 512.000000"
 preserveAspectRatio="xMidYMid meet">
<metadata>
Created by potrace 1.14, written by Peter Selinger 2001-2017
</metadata>
<g transform="translate(0.000000,512.000000) scale(0.100000,-0.100000)"
fill="#000000" stroke="none">
<path d="M2340 4925 c-41 -8 -91 -19 -110 -25 -19 -6 -51 -13 -70 -15 -19 -1
-48 -8 -65 -15 -16 -7 -34 -14 -40 -15 -28 -4 -72 -20 -93 -33 -12 -8 -25 -12
-29 -8 -4 3 -13 0 -22 -8 -9 -7 -44 -23 -79 -34 -34 -11 -74 -30 -89 -42 -14
-11 -29 -18 -32 -14 -3 3 6 16 22 28 15 12 27 28 27 35 0 8 -13 2 -32 -14
l-33 -28 -11 29 -12 29 -7 -27 c-4 -16 -10 -28 -14 -28 -24 0 -104 -69 -140
-120 -23 -32 -56 -69 -74 -81 -63 -44 -159 -133 -173 -161 -29 -56 -34 -119
-14 -165 l18 -42 -41 -20 c-23 -11 -59 -26 -79 -35 -28 -11 -43 -27 -64 -67
-14 -29 -27 -64 -29 -77 -1 -13 -8 -27 -14 -31 -6 -4 -9 -15 -6 -23 4 -9 -1
-31 -11 -49 -21 -42 -35 -89 -25 -89 4 0 13 6 21 13 7 6 5 -1 -4 -17 -18 -28
-18 -30 -1 -43 18 -12 17 -15 -12 -56 -37 -50 -68 -139 -58 -164 6 -16 8 -15
21 7 l14 25 -7 -30 c-5 -16 -7 -50 -6 -75 2 -25 4 -83 6 -130 3 -79 11 -143
24 -180 3 -11 9 -6 19 15 8 17 12 22 9 12 -3 -10 -8 -49 -11 -85 -6 -61 -4
-73 25 -134 l32 -66 -46 -65 c-72 -104 -86 -142 -75 -212 4 -33 16 -91 25
-130 9 -38 19 -86 21 -105 3 -19 11 -56 20 -82 9 -26 14 -63 13 -82 -2 -19 0
-38 4 -42 13 -14 7 -43 -10 -47 -15 -4 -14 -5 2 -6 16 -1 25 -15 40 -58 26
-75 98 -181 180 -263 l65 -65 -33 -6 c-31 -6 -30 -6 10 -8 55 -1 60 -14 21
-45 -18 -14 -29 -26 -24 -26 5 0 24 12 43 26 19 14 37 24 40 21 8 -8 22 -140
16 -150 -3 -5 4 -4 16 2 11 7 21 8 21 3 0 -16 -35 -41 -93 -66 -31 -14 -57
-27 -57 -30 0 -8 97 29 124 47 23 16 30 17 37 6 14 -22 11 -35 -13 -48 -15 -8
-16 -10 -4 -6 22 6 46 -11 46 -33 0 -9 -12 -29 -27 -44 -18 -19 -22 -28 -12
-28 8 0 20 5 27 12 7 7 12 8 12 2 0 -5 -5 -15 -12 -22 -9 -9 -8 -12 6 -12 13
0 17 7 14 27 -2 14 2 28 8 30 14 5 85 -152 78 -171 -7 -19 -34 -29 -35 -13 0
7 -4 3 -9 -9 -4 -12 -32 -35 -62 -51 -55 -31 -81 -55 -84 -78 -1 -7 -22 -38
-47 -69 -32 -39 -52 -77 -67 -125 l-20 -70 -75 -16 c-41 -10 -78 -21 -81 -26
-3 -5 -33 -23 -67 -40 -67 -34 -117 -75 -113 -93 2 -6 1 -8 -1 -4 -2 4 -23 -8
-47 -26 -23 -17 -76 -42 -117 -55 -41 -13 -114 -40 -164 -61 -49 -21 -119 -44
-155 -50 -36 -6 -103 -25 -150 -40 -47 -16 -124 -41 -172 -55 l-88 -26 0 -144
0 -145 720 0 c562 1 719 3 714 13 -5 9 -3 9 7 0 7 -7 19 -13 26 -13 7 0 -1 14
-19 31 l-33 31 40 -31 40 -31 207 0 208 0 0 34 0 34 60 -2 c33 0 60 -4 60 -7
0 -15 86 11 102 31 24 30 26 171 2 194 -22 22 -23 21 -18 -22 4 -23 2 -32 -3
-25 -5 7 -21 14 -36 15 -32 3 -31 2 -11 23 25 24 7 35 -67 40 -36 2 -78 9 -93
15 -15 5 -32 8 -37 4 -5 -3 -9 -3 -9 0 0 12 74 35 95 30 13 -3 26 -1 29 5 4 6
17 11 29 10 21 -1 20 -2 -3 -10 -22 -8 -21 -8 7 -4 41 6 98 -18 119 -50 9 -14
19 -23 22 -21 3 3 -1 12 -8 21 -7 9 -11 17 -9 19 2 2 48 -3 101 -12 l97 -15
-39 -28 c-22 -16 -43 -29 -46 -29 -4 0 -15 -9 -24 -20 -17 -20 -18 -20 -24 14
-4 20 -12 38 -17 42 -7 4 -9 0 -5 -12 3 -11 10 -61 16 -113 6 -51 13 -98 16
-102 3 -5 -3 -12 -13 -15 -10 -3 -38 -14 -63 -25 l-45 -18 335 1 c184 1 327 3
317 6 -9 2 -14 8 -10 14 4 8 0 9 -12 5 -15 -6 -16 -4 -10 15 4 13 8 35 8 50 0
15 4 25 8 22 5 -3 9 2 9 10 0 9 -4 16 -9 16 -4 0 -11 21 -14 46 -3 32 -13 54
-33 75 -26 28 -48 33 -26 6 6 -7 16 -26 22 -41 9 -26 9 -27 -5 -16 -9 8 -30
10 -57 6 -24 -3 -96 -2 -161 2 -89 6 -122 12 -134 25 -12 11 -13 17 -5 18 32
4 37 6 34 17 -2 10 12 12 55 8 32 -3 96 -8 143 -12 l85 -6 -19 21 c-14 15 -33
21 -80 24 -33 1 -5 4 64 5 69 1 152 6 185 12 83 14 91 13 66 -7 -29 -24 -47
-140 -33 -207 5 -26 7 -45 4 -42 -8 9 -34 -33 -27 -44 3 -6 17 -10 31 -10 14
0 22 -4 19 -10 -7 -11 85 -14 123 -4 17 5 21 11 17 25 -4 11 -2 19 4 19 6 0
10 -6 8 -12 -1 -8 7 -13 20 -12 12 0 21 -4 20 -10 -1 -7 42 -11 133 -11 l135
0 115 59 c179 90 312 195 408 321 l22 30 -16 -35 c-20 -42 -168 -187 -239
-234 -28 -19 -98 -59 -155 -90 -68 -36 -97 -56 -81 -56 25 0 175 67 207 93 10
9 47 39 82 67 34 29 62 48 62 44 0 -4 9 1 20 11 11 10 18 20 17 24 -1 3 26 35
61 71 34 36 60 57 56 48 -3 -9 -17 -24 -30 -33 -13 -8 -24 -20 -24 -26 0 -7 6
-6 17 2 15 13 15 12 5 -7 -31 -59 -216 -202 -330 -256 -59 -28 -64 -32 -40
-36 15 -2 33 2 40 8 26 22 210 129 198 115 -26 -31 5 -13 64 38 34 29 70 59
81 67 48 36 -9 -21 -73 -73 -77 -62 -99 -76 -87 -57 5 8 3 11 -6 8 -8 -3 -14
-10 -14 -16 0 -5 -4 -14 -9 -19 -5 -5 -6 -2 -1 6 5 9 3 12 -6 9 -8 -3 -13 -10
-12 -16 2 -7 -4 -9 -14 -5 -11 4 -14 3 -9 -6 4 -6 4 -10 -1 -9 -17 4 -53 -14
-47 -24 4 -7 2 -8 -4 -4 -7 4 -12 1 -12 -8 0 -13 14 -16 74 -16 74 0 74 0 127
47 l54 47 -45 -47 -44 -47 702 0 702 0 0 135 c0 122 -2 135 -17 135 -17 1 -17
1 0 14 25 19 21 26 -11 17 -35 -11 -207 32 -339 83 -51 20 -99 36 -108 36 -8
0 -20 10 -26 23 -23 51 -156 113 -221 102 -42 -7 -40 -9 -169 102 -34 29 -66
53 -72 53 -5 0 -43 16 -84 35 -56 27 -80 46 -101 77 -19 29 -42 48 -78 64 -49
21 -52 26 -64 73 -7 28 -9 58 -6 67 3 8 2 12 -4 9 -6 -3 -10 1 -10 10 0 32
-51 114 -95 153 l-47 41 27 7 c14 3 49 2 78 -4 29 -6 54 -9 56 -7 6 7 -82 26
-113 25 -73 -4 -82 4 -45 41 11 11 22 29 24 39 4 21 34 71 50 82 6 5 3 8 -7 8
-11 0 -15 5 -12 14 3 8 12 12 19 10 7 -3 16 -1 20 5 4 7 0 8 -11 4 -14 -5 -16
-2 -10 18 4 13 10 36 13 52 5 27 10 29 73 41 14 2 6 4 -18 2 -32 -1 -41 2 -37
12 3 8 5 18 5 23 0 5 8 9 17 9 15 0 15 1 -2 13 -10 8 -15 19 -11 25 4 7 7 46
7 87 0 45 4 75 10 75 16 0 89 53 89 65 0 6 12 56 26 112 23 88 30 103 48 104
18 1 18 2 3 6 -24 6 -18 34 44 182 74 180 80 270 30 437 -18 60 -29 79 -72
119 -47 44 -53 47 -90 41 -24 -4 -39 -2 -39 4 0 5 5 10 10 10 15 0 13 27 -17
187 -24 132 -25 153 -14 207 14 72 27 115 52 176 10 25 20 64 23 86 9 63 -11
191 -38 250 -30 64 -26 72 6 12 26 -50 35 -33 18 33 -12 43 -31 66 -111 131
-25 20 -46 43 -46 52 0 11 6 9 23 -9 23 -25 44 -33 44 -16 0 12 -58 61 -73 62
-7 1 -18 1 -24 0 -7 -1 -13 4 -13 10 0 7 -6 20 -14 28 -8 9 -25 55 -40 102
-29 97 -56 139 -91 139 -15 0 -25 7 -28 21 -4 15 -11 20 -22 16 -18 -8 -68 56
-85 109 -7 19 -15 32 -20 29 -17 -10 -39 8 -73 60 -24 36 -55 64 -95 88 -32
20 -82 64 -111 97 -107 123 -291 181 -566 179 -66 -1 -154 -7 -195 -14z m665
-105 c3 -5 2 -10 -4 -10 -5 0 -13 5 -16 10 -3 6 -2 10 4 10 5 0 13 -4 16 -10z
m-1425 -160 c-17 -22 -34 -40 -37 -40 -2 0 10 18 27 40 17 22 34 40 37 40 2 0
-10 -18 -27 -40z m-249 -244 c-12 -19 -28 -65 -35 -103 -11 -53 -14 -60 -15
-32 -1 39 20 109 45 146 23 37 28 26 5 -11z m-74 -143 c-3 -10 -5 -4 -5 12 0
17 2 24 5 18 2 -7 2 -21 0 -30z m33 -72 c7 -15 7 -22 -2 -27 -7 -4 -10 -4 -6
1 4 4 3 16 -3 26 -5 11 -7 19 -5 19 3 0 10 -9 16 -19z m1175 -65 c10 -3 17 4
21 21 6 21 8 23 16 9 10 -18 68 -23 68 -5 0 5 5 7 11 4 5 -4 66 -8 135 -10
109 -2 124 -1 125 14 0 12 4 9 16 -9 9 -14 48 -56 87 -94 39 -38 64 -67 56
-64 -48 16 -64 20 -55 11 15 -15 97 -45 103 -38 3 3 -4 18 -16 35 -13 18 -18
31 -12 35 17 10 99 -44 121 -78 17 -30 19 -30 19 -9 0 23 1 23 48 -11 26 -19
61 -42 77 -51 17 -8 66 -51 110 -93 45 -43 66 -65 48 -49 -18 16 -35 28 -37
25 -5 -5 84 -120 137 -179 18 -19 24 -29 15 -21 -25 19 -22 -2 3 -25 11 -10
26 -28 31 -39 11 -20 11 -20 -11 -1 -28 25 -27 17 5 -41 15 -26 44 -101 66
-167 22 -66 43 -127 48 -137 6 -9 17 -64 25 -121 8 -56 22 -146 31 -198 9 -52
20 -153 26 -225 5 -71 13 -168 18 -215 22 -208 23 -230 12 -230 -6 0 -23 -17
-37 -37 -25 -38 -26 -40 -19 -170 7 -134 2 -182 -16 -153 -6 8 -10 31 -10 49
0 27 -3 32 -12 23 -9 -9 -9 -22 0 -57 16 -60 15 -73 -3 -49 -14 18 -14 17 -5
-9 17 -48 10 -54 -10 -9 -24 54 -34 55 -15 1 8 -23 15 -53 14 -68 l-1 -26 -8
27 c-9 31 -40 78 -40 61 0 -6 7 -27 15 -46 8 -20 15 -53 14 -74 -1 -34 -3 -31
-15 24 -12 58 -41 119 -51 109 -2 -2 3 -21 11 -41 9 -21 16 -47 15 -59 0 -14
-5 -8 -15 19 -8 22 -19 44 -24 49 -15 15 -12 -15 5 -44 8 -14 14 -32 14 -40 0
-8 -9 3 -20 25 -36 73 -54 71 -24 -2 11 -25 12 -40 5 -47 -7 -7 -10 -2 -10 16
0 14 -7 31 -15 38 -8 7 -15 20 -15 28 0 13 -3 13 -12 4 -10 -10 -10 -17 0 -32
7 -12 10 -31 6 -47 -5 -18 -4 -24 5 -19 6 4 11 1 11 -8 0 -28 -18 -26 -25 3
-3 16 -14 36 -22 43 -15 12 -16 10 -10 -19 8 -42 -8 -51 -27 -16 -19 36 -19
29 0 -53 8 -37 13 -76 11 -88 -2 -12 -7 3 -12 32 -4 29 -12 55 -16 58 -5 3 -6
10 -3 16 5 7 2 8 -5 4 -7 -5 -10 -20 -7 -39 4 -22 0 -16 -13 18 l-19 50 -2
-35 -2 -35 -14 33 c-16 36 -25 43 -17 12 3 -11 0 -20 -6 -20 -11 0 -14 11 -12
45 1 12 -3 32 -8 45 -7 18 -10 20 -10 8 -1 -18 -31 -26 -31 -9 0 5 7 14 15 21
8 7 15 18 15 24 0 7 -3 6 -8 -2 -11 -17 -39 -5 -45 20 -3 11 -10 17 -16 14 -5
-4 -13 3 -16 15 -4 11 -9 18 -12 15 -3 -3 -14 4 -24 16 -11 11 -19 17 -19 12
0 -5 -8 6 -16 24 -17 32 -34 43 -34 20 0 -7 -11 5 -25 27 -24 40 -35 33 -14
-8 14 -27 2 -15 -36 37 -16 23 -31 34 -33 27 -2 -7 4 -22 14 -33 19 -21 19
-21 -3 -7 -13 8 -23 16 -23 19 0 3 -10 16 -21 30 l-21 25 6 -32 c7 -42 -3 -42
-33 2 -25 37 -49 49 -31 16 24 -46 8 -53 -19 -8 -41 70 -50 77 -47 33 2 -20 1
-36 -1 -36 -2 0 -18 30 -35 68 -17 37 -33 62 -35 55 -2 -6 4 -27 13 -45 16
-32 16 -32 -1 -18 -17 14 -17 14 -7 -7 7 -12 12 -30 12 -40 -1 -10 -19 16 -41
57 -27 52 -38 65 -34 44 4 -22 2 -33 -8 -37 -16 -6 -32 46 -20 66 3 6 1 7 -5
3 -7 -4 -12 -14 -12 -22 0 -8 -6 -14 -14 -14 -9 0 -12 -7 -9 -18 3 -13 -1 -19
-12 -19 -9 0 -14 6 -10 14 7 21 -25 12 -39 -10 -8 -14 -8 -20 4 -27 8 -5 11
-12 7 -17 -11 -11 -27 17 -27 48 0 21 6 28 28 34 15 3 34 12 42 19 35 29 91
54 134 60 85 12 138 24 148 34 6 6 7 28 0 63 -6 32 -10 43 -11 27 -1 -18 -7
-28 -16 -28 -8 0 -15 5 -15 11 0 5 -8 9 -17 8 -41 -4 -84 2 -78 10 3 5 1 13
-5 16 -6 4 -9 1 -8 -5 3 -11 -47 -47 -70 -51 -19 -4 -39 -13 -57 -28 -19 -15
-19 -15 -5 3 14 18 14 19 -7 8 -14 -8 -24 -9 -28 -2 -3 5 -21 10 -40 10 -18 0
-70 14 -114 31 -104 40 -115 57 -105 170 6 70 5 79 -10 79 -10 0 -14 5 -11 10
3 6 -3 10 -15 10 -11 0 -23 -7 -27 -16 -3 -8 -25 -44 -48 -79 -59 -87 -81
-197 -52 -255 8 -16 27 -28 57 -37 75 -21 118 -46 123 -71 2 -12 0 -25 -4 -28
-5 -3 -9 7 -10 23 -1 27 -1 27 -11 -7 -5 -19 -8 -51 -6 -71 2 -27 0 -35 -10
-32 -9 4 -11 21 -9 54 2 27 0 49 -4 49 -5 0 -9 -7 -9 -16 0 -8 -4 -12 -10 -9
-6 4 -10 -5 -10 -19 0 -14 -5 -26 -11 -26 -5 0 -7 -4 -4 -10 3 -5 1 -10 -4
-10 -6 0 -11 -5 -11 -11 0 -5 4 -7 10 -4 6 4 7 -1 3 -11 -6 -16 -7 -16 -19 1
-9 13 -10 23 -3 36 6 11 6 19 0 19 -14 0 -21 -26 -16 -65 6 -48 -2 -44 -16 8
l-12 42 -8 -30 c-3 -16 -7 -22 -8 -12 -2 25 -21 21 -21 -5 0 -17 -3 -19 -9
-10 -7 11 -9 11 -14 -2 -4 -9 -4 -23 -1 -31 8 -20 -6 -19 -23 3 -13 15 -14 15
-8 -8 6 -24 6 -25 -10 -5 -16 19 -16 19 -10 -8 9 -33 -7 -36 -23 -4 -11 20
-12 18 -7 -13 3 -19 2 -29 -1 -21 -5 11 -8 11 -15 0 -7 -11 -9 -10 -9 4 0 12
-9 7 -34 -20 -23 -27 -36 -53 -42 -88 -7 -45 -9 -47 -12 -17 -4 38 -23 42 -45
8 -23 -34 -29 -84 -18 -140 7 -37 6 -55 -4 -70 -7 -12 -16 -36 -20 -53 -4 -18
-11 -36 -17 -39 -8 -5 -9 1 -4 17 19 70 19 72 6 64 -10 -6 -12 -1 -8 18 3 15
1 24 -3 21 -5 -3 -9 0 -9 6 0 7 -7 10 -15 6 -12 -4 -13 -2 -6 13 6 10 8 21 4
24 -3 4 -5 67 -4 142 4 283 -27 337 -37 65 -4 -109 -7 -139 -15 -122 -12 26
-32 29 -41 5 -6 -14 -9 -15 -16 -4 -6 11 -11 4 -19 -25 -12 -42 -40 -96 -41
-78 0 6 14 44 30 84 25 60 29 79 21 104 -5 17 -11 99 -14 182 -5 196 -19 229
-110 273 -76 36 -118 76 -151 144 -22 44 -26 64 -26 146 0 76 -3 93 -12 83 -9
-9 -13 -52 -13 -140 0 -156 18 -203 94 -250 34 -21 56 -45 79 -88 18 -32 48
-80 66 -105 30 -43 34 -55 38 -140 6 -91 5 -94 -27 -152 -28 -51 -34 -56 -40
-38 -3 11 -1 29 5 38 8 15 9 12 5 -12 -5 -24 -1 -20 20 19 27 53 31 71 15 61
-7 -4 -9 2 -4 19 4 16 2 26 -5 26 -10 0 -15 -28 -12 -75 1 -17 0 -17 -9 3 -6
15 -6 38 0 65 14 62 13 76 -5 53 -14 -19 -15 -17 -16 20 0 21 -3 33 -6 27 -2
-7 -9 -13 -14 -13 -6 0 -5 9 2 22 10 18 9 20 -5 15 -10 -4 -16 -1 -16 7 0 7
-9 23 -20 36 -11 13 -20 18 -20 12 0 -7 -7 -12 -15 -12 -9 0 -15 9 -15 23 -1
21 -29 82 -30 62 0 -11 -61 54 -64 69 -2 6 -8 31 -15 55 -7 24 -11 76 -9 116
2 40 0 71 -3 69 -9 -5 -21 159 -15 203 4 27 3 31 -2 13 l-8 -25 -7 26 c-4 15
-7 78 -6 140 0 66 -7 152 -17 204 -11 60 -17 142 -17 246 0 179 -5 163 113
339 42 63 83 126 90 140 l13 25 -25 -27 c-14 -15 -41 -47 -59 -72 -18 -25 -34
-44 -37 -42 -2 3 14 28 36 58 23 29 39 55 36 57 -3 3 -25 -17 -50 -44 -25 -28
-42 -43 -38 -35 4 8 16 25 27 37 10 12 17 26 14 30 -11 17 31 71 96 125 147
123 268 230 284 254 33 47 53 59 152 90 71 22 104 28 116 21 12 -6 25 -5 40 3
13 7 31 10 40 6 13 -5 16 -2 11 9 -4 12 -2 13 12 6 9 -4 46 -7 82 -6 36 1 71
-3 79 -9 21 -17 41 -16 41 2 1 15 2 15 15 -2 8 -10 21 -16 29 -13 8 3 16 1 19
-6 6 -18 37 17 38 45 2 22 2 22 6 1 2 -12 11 -24 18 -27z m-1335 -89 c0 -2
-17 -19 -37 -38 l-38 -34 34 38 c33 34 41 42 41 34z m628 -29 c-8 -12 -30 -33
-49 -46 l-34 -25 35 34 c19 18 36 37 36 41 3 16 4 18 15 18 8 0 6 -8 -3 -22z
m-162 -120 c-20 -23 -36 -45 -36 -48 0 -4 -19 -22 -42 -41 -34 -27 -28 -17 31
49 77 85 109 113 47 40z m-31 3 c-3 -6 -11 -11 -17 -11 -6 0 -6 6 2 15 14 17
26 13 15 -4z m-45 -34 c0 -2 -14 -16 -32 -33 l-31 -29 22 33 c18 26 41 42 41
29z m-214 -439 c-9 -12 -16 -19 -16 -15 0 11 24 47 28 42 2 -2 -3 -14 -12 -27z
m-309 -30 c-3 -7 -5 -2 -5 12 0 14 2 19 5 13 2 -7 2 -19 0 -25z m2924 -549
c17 -9 18 -13 7 -26 -8 -10 -9 -18 -3 -20 47 -16 61 -33 92 -108 18 -44 33
-86 33 -95 -1 -8 -7 3 -15 25 -27 77 -66 80 -127 12 l-38 -42 0 42 c0 23 -7
77 -15 120 -14 72 -14 79 2 91 21 15 38 15 64 1z m-2887 -86 c-8 -27 -17 -84
-20 -128 -8 -111 -23 -130 -24 -30 0 60 3 76 11 65 9 -12 10 -10 6 8 -5 20 1
47 28 120 2 6 7 12 9 12 3 0 -2 -21 -10 -47z m42 -23 c0 -12 -4 -16 -9 -11 -5
5 -6 14 -3 20 10 15 12 14 12 -9z m63 -12 c-1 -7 -1 -20 0 -28 1 -13 3 -13 10
-1 7 11 11 6 15 -20 3 -19 5 -41 6 -49 0 -8 3 -39 5 -69 3 -30 3 -52 1 -50
-18 19 -75 99 -71 99 3 0 0 10 -7 23 -12 20 -19 57 -12 57 2 0 19 -14 39 -31
41 -37 46 -21 10 33 -29 43 -30 48 -10 48 9 0 15 -6 14 -12z m2918 -170 c-3
-8 -6 -5 -6 6 -1 11 2 17 5 13 3 -3 4 -12 1 -19z m-97 -38 c0 -5 -7 -10 -15
-10 -8 0 -15 5 -15 10 0 6 7 10 15 10 8 0 15 -4 15 -10z m4 -57 c48 -59 54
-82 35 -130 -7 -20 -12 -24 -18 -14 -7 10 -11 8 -17 -10 -4 -13 -8 -32 -9 -42
-1 -10 -8 -23 -15 -30 -10 -10 -10 -8 0 11 6 13 9 26 6 29 -3 3 2 23 11 44 16
42 10 59 -28 79 -14 8 -16 6 -12 -10 4 -16 2 -19 -11 -14 -11 4 -15 13 -11 25
8 23 -31 61 -57 55 -12 -3 -15 1 -10 13 9 26 25 32 71 26 31 -3 49 -13 65 -32z
m-2947 -35 c-3 -8 -6 -5 -6 6 -1 11 2 17 5 13 3 -3 4 -12 1 -19z m2840 -30
c-3 -8 -6 -5 -6 6 -1 11 2 17 5 13 3 -3 4 -12 1 -19z m-1537 -22 c0 -13 -10
-30 -22 -39 -13 -8 -38 -29 -55 -46 l-33 -30 0 29 c0 20 12 42 38 70 44 46 72
52 72 16z m-1078 -48 c9 -7 19 -24 23 -38 5 -19 4 -21 -4 -10 -7 10 -11 11
-11 3 0 -7 -6 -10 -13 -7 -16 6 -57 -31 -57 -52 0 -8 -5 -12 -10 -9 -7 4 -8
-3 -4 -21 4 -15 7 -39 8 -53 1 -14 3 -24 6 -21 6 5 92 -41 102 -55 5 -6 8 -5
8 4 0 11 3 11 14 1 16 -12 11 -40 -7 -40 -6 0 -7 3 -4 7 4 3 -1 11 -11 17 -10
6 -34 21 -52 33 -33 22 -50 18 -50 -12 0 -6 4 -5 8 1 4 7 22 -10 45 -44 l38
-55 -38 32 c-43 38 -103 135 -103 168 0 31 35 121 56 144 20 22 34 24 56 7z
m-165 -160 c-2 -29 -3 -6 -3 52 0 58 1 81 3 53 2 -29 2 -77 0 -105z m1283 121
c16 -29 7 -33 -34 -18 -39 14 -46 25 -18 32 33 9 41 7 52 -14z m-43 -45 c-3
-3 -12 -4 -19 -1 -8 3 -5 6 6 6 11 1 17 -2 13 -5z m588 -42 c-3 -3 -11 0 -18
7 -9 10 -8 11 6 5 10 -3 15 -9 12 -12z m992 -44 c-9 -24 -21 -90 -27 -146 -14
-127 -24 -159 -45 -142 -8 7 -15 20 -16 29 0 13 -2 13 -8 -2 -4 -12 -10 13
-17 68 -9 86 -9 87 16 102 14 8 39 44 58 85 24 50 37 67 44 60 8 -8 6 -24 -5
-54z m23 -68 c-18 -73 -27 -97 -24 -65 5 51 42 190 49 184 2 -2 -10 -56 -25
-119z m-1004 82 c-17 -16 -18 -16 -5 5 7 12 15 20 18 17 3 -2 -3 -12 -13 -22z
m-1306 -11 c5 -11 10 -32 10 -48 l-1 -28 -13 25 c-21 39 -29 70 -17 70 6 0 15
-9 21 -19z m2198 -44 c-10 -33 -38 -60 -38 -37 0 6 5 10 10 10 6 0 10 10 10
23 0 20 19 51 27 44 1 -2 -3 -19 -9 -40z m-2678 -120 c6 -11 9 -21 6 -24 -8
-8 -56 98 -55 122 0 11 9 -2 19 -30 11 -27 24 -58 30 -68z m1278 23 c0 -27 -4
-47 -9 -44 -5 3 -9 25 -9 50 0 24 4 44 9 44 5 0 9 -22 9 -50z m52 -21 c7 -27
10 -53 6 -56 -3 -3 -9 14 -13 38 l-7 44 -7 -35 c-6 -31 -7 -29 -8 18 -1 64 13
60 29 -9z m33 22 c-8 -36 -10 -36 -15 -3 -3 19 0 29 9 29 8 0 11 -9 6 -26z
m54 21 c9 -6 7 -11 -7 -20 -17 -11 -20 -10 -20 8 0 21 7 25 27 12z m-173 -48
c4 -9 4 -26 0 -37 -5 -16 -8 -17 -15 -6 -11 18 -11 59 0 59 5 0 12 -7 15 -16z
m319 1 c4 -8 2 -17 -3 -20 -6 -4 -10 3 -10 14 0 25 6 27 13 6z m57 -11 c0 -8
-4 -12 -10 -9 -5 3 -10 13 -10 21 0 8 5 12 10 9 6 -3 10 -13 10 -21z m-85 -3
c3 -5 1 -12 -4 -15 -5 -3 -11 1 -15 9 -6 16 9 21 19 6z m-1504 -38 c13 -16 12
-17 -3 -4 -10 7 -18 15 -18 17 0 8 8 3 21 -13z m1483 -9 c3 -8 2 -12 -4 -9 -6
3 -10 10 -10 16 0 14 7 11 14 -7z m51 -26 c6 -1 15 -7 20 -13 6 -7 21 -16 34
-20 23 -7 24 -6 17 26 -4 24 -3 30 4 19 5 -8 10 -22 10 -31 0 -11 19 -21 63
-33 34 -9 69 -18 78 -20 8 -2 32 -11 53 -20 21 -9 42 -14 46 -11 5 3 12 0 16
-6 5 -9 -2 -10 -27 -4 -19 4 -44 8 -56 9 -12 0 -25 4 -29 9 -12 12 -72 8 -77
-5 -3 -7 -6 -4 -7 7 -1 20 -1 20 -15 1 -9 -12 -15 -15 -15 -7 0 10 -13 12 -57
7 -73 -8 -81 -9 -118 -25 -24 -10 -39 -10 -75 -1 -25 7 -65 13 -89 13 -24 -1
-38 3 -31 7 7 4 -9 6 -36 5 -26 -2 -56 1 -65 6 -12 6 -19 5 -22 -4 -4 -9 -6
-9 -6 1 -1 7 6 15 14 18 8 4 12 11 8 18 -4 7 -2 7 7 -1 14 -13 31 -2 43 27 4
12 6 11 6 -2 1 -28 21 -21 21 8 0 14 4 23 9 20 5 -3 7 -14 4 -24 -3 -12 1 -19
11 -19 10 0 16 10 17 26 l0 26 10 -24 c8 -20 14 -23 43 -18 36 6 46 2 62 -28
6 -11 19 -21 28 -23 12 -3 16 5 17 30 0 27 2 30 9 13 6 -14 9 -15 10 -5 0 8 8
24 17 35 12 16 14 16 10 3 -8 -22 4 -30 23 -17 12 8 12 12 3 16 -7 2 -13 14
-12 26 0 20 1 20 8 4 4 -10 11 -19 16 -19z m42 -5 c-3 -10 -5 -4 -5 12 0 17 2
24 5 18 2 -7 2 -21 0 -30z m-250 -15 c-3 -8 -6 -5 -6 6 -1 11 2 17 5 13 3 -3
4 -12 1 -19z m591 -43 c-3 -3 -9 2 -12 12 -6 14 -5 15 5 6 7 -7 10 -15 7 -18z
m747 5 c3 -6 -1 -7 -9 -4 -18 7 -21 14 -7 14 6 0 13 -4 16 -10z m-1545 -29 c0
-5 -8 -11 -17 -15 -10 -3 -24 -9 -30 -12 -7 -3 -13 -2 -13 3 0 5 12 14 28 20
15 6 28 11 30 12 1 1 2 -3 2 -8z m-75 -31 c-3 -5 -16 -15 -28 -21 -21 -10 -21
-9 2 10 25 23 36 27 26 11z m873 -6 c14 8 39 -2 46 -19 4 -11 -1 -11 -32 -1
-20 7 -38 19 -40 27 -3 12 -2 12 6 0 5 -7 14 -11 20 -7z m-1511 -76 c-3 -8 -6
-5 -6 6 -1 11 2 17 5 13 3 -3 4 -12 1 -19z m113 12 c0 -5 -4 -10 -10 -10 -5 0
-10 5 -10 10 0 6 5 10 10 10 6 0 10 -4 10 -10z m1265 -14 c44 -8 117 -17 162
-21 82 -7 111 -21 117 -57 1 -8 14 -27 29 -44 15 -16 25 -35 22 -43 -3 -8 3
-23 12 -35 l18 -21 -23 19 c-30 26 -37 15 -12 -17 29 -37 25 -40 -9 -6 -16 16
-38 29 -48 29 -14 -1 -11 -4 9 -16 15 -8 35 -29 43 -47 l16 -32 -20 25 c-28
34 -27 10 1 -26 l22 -29 -25 23 c-32 28 -48 29 -23 1 15 -17 16 -22 4 -29 -12
-8 -11 -13 8 -30 25 -24 31 -50 6 -29 -18 15 -50 74 -35 65 6 -4 11 -2 11 3 0
6 -4 11 -9 11 -5 0 -18 3 -28 7 -14 5 -16 4 -7 -8 6 -8 14 -23 18 -34 6 -16 0
-14 -25 10 l-32 30 35 -50 c32 -46 47 -89 64 -174 4 -21 2 -31 -4 -27 -5 3
-13 21 -16 40 -8 44 -43 123 -58 132 -7 5 -9 -5 -4 -32 l7 -39 -26 30 c-15 17
-23 23 -19 15 4 -8 15 -24 25 -35 10 -12 25 -54 33 -95 9 -41 19 -86 22 -100
7 -24 7 -24 -10 -8 -9 10 -15 22 -11 28 3 5 -3 29 -13 52 -11 24 -23 58 -27
75 -3 18 -11 35 -16 38 -12 8 -11 -3 6 -50 8 -22 14 -65 13 -95 -1 -37 -3 -44
-5 -21 -3 19 -11 40 -19 48 -8 8 -14 25 -14 38 0 13 -5 27 -11 31 -8 5 -10 0
-6 -17 9 -40 20 -184 13 -178 -7 6 -27 108 -30 146 0 11 -4 19 -8 16 -5 -2 -8
2 -8 9 0 8 -6 23 -14 34 -10 13 -8 -7 8 -71 13 -49 26 -119 29 -155 3 -36 3
-56 1 -45 -3 11 -12 34 -20 52 -8 17 -14 44 -14 59 0 20 -3 25 -11 17 -8 -8
-7 -32 5 -88 9 -42 16 -82 16 -89 -1 -17 -40 74 -40 93 0 9 -9 39 -20 66 l-20
50 1 -65 c0 -36 0 -69 -1 -75 -2 -13 -19 37 -35 105 -10 41 -14 47 -14 25 -1
-31 12 -119 24 -167 5 -18 3 -28 -4 -28 -6 0 -11 12 -12 28 0 29 -17 77 -18
53 -2 -27 -14 -2 -27 56 l-13 58 4 -57 c10 -114 12 -163 8 -140 -2 12 -8 22
-13 22 -5 0 -12 28 -17 63 l-7 62 -12 -80 -11 -80 -3 60 c-1 51 -3 56 -10 31
-5 -16 -6 -42 -3 -59 4 -21 3 -28 -5 -23 -7 4 -12 20 -12 35 0 16 -6 34 -14
40 -11 9 -15 5 -22 -21 -7 -30 -9 -26 -13 32 l-4 65 -12 -90 c-11 -85 -12 -87
-14 -35 -4 91 -19 106 -21 20 -1 -73 -16 -77 -21 -5 -2 24 -3 22 -9 -15 l-7
-45 -2 40 c-2 22 -7 51 -12 65 -6 18 -8 10 -5 -33 2 -48 0 -57 -13 -55 -12 3
-17 19 -19 68 -2 36 -8 70 -14 75 -7 7 -8 -4 -4 -36 7 -46 1 -79 -14 -79 -5 0
-12 24 -16 53 l-7 52 -10 -45 c-12 -61 -27 -74 -29 -24 l-1 39 -6 -45 -6 -45
-22 65 c-15 46 -22 57 -22 38 -1 -35 21 -118 31 -118 4 0 5 -7 2 -15 -11 -27
-24 -16 -24 19 0 19 -4 38 -10 41 -5 3 -10 15 -10 25 0 10 -5 22 -11 26 -7 4
-10 -3 -9 -17 3 -38 1 -51 -9 -44 -5 3 -11 -5 -13 -17 -2 -13 -10 10 -17 50
-15 83 -27 97 -17 20 4 -29 9 -69 11 -88 l4 -35 -13 40 c-8 22 -15 52 -15 66
-1 15 -10 46 -21 70 l-20 44 5 -75 c5 -54 4 -71 -4 -60 -6 8 -11 35 -12 60
l-2 45 -8 -45 c-4 -25 -12 -63 -18 -85 -10 -37 -10 -35 -7 25 2 40 1 57 -4 45
-8 -18 -9 -18 -10 5 0 19 -3 22 -9 10 -6 -9 -5 -37 1 -69 11 -63 6 -73 -18
-36 -19 28 -21 41 -24 120 -3 48 -3 49 -10 15 -7 -32 -7 -30 -9 20 -1 50 -2
53 -15 34 -8 -11 -16 -38 -19 -60 -3 -33 -4 -31 -6 16 -2 50 -3 53 -14 32 -7
-12 -16 -19 -20 -16 -11 11 -8 66 3 59 6 -3 10 -1 10 5 0 7 -6 10 -12 8 -7 -3
-16 -23 -19 -46 -3 -23 -8 -45 -12 -48 -9 -9 -8 28 2 89 4 26 4 47 -1 47 -4 0
-8 -7 -8 -15 0 -8 -4 -15 -10 -15 -18 0 -10 27 13 43 12 8 19 18 15 22 -4 4
-22 -7 -39 -26 -22 -23 -28 -27 -20 -11 7 12 9 26 7 31 -5 7 14 22 34 25 10 2
54 36 47 36 -4 0 -26 -9 -48 -19 -40 -20 -41 -14 -5 29 12 13 14 19 6 13 -9
-7 -29 -17 -45 -23 l-30 -11 24 25 c17 18 20 26 10 26 -8 1 -3 7 11 16 22 13
22 14 3 9 -12 -3 -24 -2 -27 3 -3 6 4 12 15 15 12 3 18 10 14 17 -4 6 -13 9
-21 6 -16 -6 -19 5 -4 20 13 13 -18 12 -39 -1 -16 -9 -8 8 18 39 15 18 15 18
-6 12 -19 -6 -22 -4 -16 11 3 10 11 24 17 32 9 12 8 13 -6 8 -21 -7 -24 3 -6
21 9 9 9 12 -1 12 -7 0 -9 5 -4 13 4 6 8 21 8 33 0 11 10 33 21 48 19 26 30
30 122 42 55 7 131 20 168 30 54 13 93 15 189 11 79 -4 147 -2 200 7 109 18
156 18 250 2z m-1295 -7 c0 -5 5 -7 12 -3 8 5 9 2 4 -12 -5 -10 -12 -35 -18
-54 -15 -57 -30 -90 -40 -90 -11 0 -4 26 23 89 21 47 25 67 8 39 -16 -29 -29
-20 -18 12 11 29 29 41 29 19z m290 -31 c0 -23 -3 -29 -9 -19 -7 11 -9 11 -14
0 -4 -8 -4 0 -2 16 4 38 3 35 15 35 6 0 10 -15 10 -32z m1767 -20 c-3 -8 -6
-5 -6 6 -1 11 2 17 5 13 3 -3 4 -12 1 -19z m-2127 -25 c0 -5 -8 -17 -17 -28
-14 -18 -15 -18 -9 -2 3 10 6 23 6 28 0 5 5 9 10 9 6 0 10 -3 10 -7z m17 -39
c-8 -21 -17 -56 -21 -78 -4 -22 -11 -35 -16 -30 -5 5 -1 34 11 69 27 84 29 88
34 83 3 -3 -1 -22 -8 -44z m310 9 c-3 -10 -5 -4 -5 12 0 17 2 24 5 18 2 -7 2
-21 0 -30z m20 5 c-3 -7 -5 -2 -5 12 0 14 2 19 5 13 2 -7 2 -19 0 -25z m-208
-32 c-9 -8 -10 -7 -5 7 3 10 7 26 7 35 1 9 4 6 6 -7 3 -13 -1 -28 -8 -35z
m1889 45 c15 -9 12 -62 -3 -61 -5 1 -8 13 -7 27 2 14 -2 30 -10 34 -7 5 -8 9
-3 9 6 0 16 -4 23 -9z m-1917 -44 c-13 -13 -15 1 -4 30 7 17 8 17 11 -1 2 -10
-1 -23 -7 -29z m66 11 c-3 -8 -6 -5 -6 6 -1 11 2 17 5 13 3 -3 4 -12 1 -19z
m173 -22 c0 -3 -4 -8 -10 -11 -5 -3 -10 -1 -10 4 0 6 5 11 10 11 6 0 10 -2 10
-4z m1633 -48 c-8 -72 -15 -75 -12 -5 1 31 6 57 10 57 5 0 5 -24 2 -52z
m-1883 32 c0 -5 -2 -10 -4 -10 -3 0 -8 5 -11 10 -3 6 -1 10 4 10 6 0 11 -4 11
-10z m16 -80 c-8 -36 -15 -57 -15 -47 -1 11 -5 15 -13 11 -7 -5 -9 -2 -6 7 3
8 13 39 24 69 23 69 29 46 10 -40z m2021 58 c-3 -7 -5 -2 -5 12 0 14 2 19 5
13 2 -7 2 -19 0 -25z m-2185 -20 c-6 -6 -7 0 -4 19 5 21 7 23 10 9 2 -10 0
-22 -6 -28z m129 -11 c-13 -33 -16 -34 -16 -3 0 13 4 22 9 18 5 -3 6 3 2 14
-5 14 -4 16 4 8 7 -7 8 -19 1 -37z m73 9 c-3 -15 -8 -25 -11 -23 -2 3 -1 17 3
31 3 15 8 25 11 23 2 -3 1 -17 -3 -31z m-119 -7 c-6 -16 -9 -18 -16 -8 -4 8
-3 19 3 26 15 18 21 9 13 -18z m212 -1 c-3 -8 -6 -5 -6 6 -1 11 2 17 5 13 3
-3 4 -12 1 -19z m1641 -68 c5 -28 6 -48 2 -43 -8 8 -30 105 -29 126 1 21 17
-30 27 -83z m-1546 -4 c-3 -5 -9 1 -14 13 -4 12 -12 20 -16 17 -5 -3 -7 6 -4
21 l5 26 17 -34 c9 -19 14 -38 12 -43z m-335 32 c-3 -8 -6 -5 -6 6 -1 11 2 17
5 13 3 -3 4 -12 1 -19z m53 -11 c0 -5 -4 -5 -10 -2 -5 3 -10 14 -10 23 0 15 2
15 10 2 5 -8 10 -19 10 -23z m1792 4 c2 -17 1 -28 -4 -25 -8 5 -12 54 -4 54 2
0 6 -13 8 -29z m-1941 -18 c-8 -15 -10 -15 -11 -2 0 17 10 32 18 25 2 -3 -1
-13 -7 -23z m56 5 c-3 -8 -6 -5 -6 6 -1 11 2 17 5 13 3 -3 4 -12 1 -19z m190
-10 c-3 -8 -6 -5 -6 6 -1 11 2 17 5 13 3 -3 4 -12 1 -19z m1790 0 c-3 -8 -6
-5 -6 6 -1 11 2 17 5 13 3 -3 4 -12 1 -19z m-1955 -20 c-8 -8 -9 -4 -5 13 4
13 8 18 11 10 2 -7 -1 -18 -6 -23z m45 -5 c-3 -10 -5 -4 -5 12 0 17 2 24 5 18
2 -7 2 -21 0 -30z m168 -18 c-10 -25 -20 -43 -23 -40 -3 2 3 25 13 50 9 26 19
44 22 41 3 -3 -3 -25 -12 -51z m1528 35 c9 -11 13 -20 7 -20 -5 0 -14 9 -20
20 -6 11 -9 20 -8 20 2 0 11 -9 21 -20z m84 -12 c-3 -7 -5 -2 -5 12 0 14 2 19
5 13 2 -7 2 -19 0 -25z m100 0 c-3 -8 -6 -5 -6 6 -1 11 2 17 5 13 3 -3 4 -12
1 -19z m-1795 -20 c-8 -8 -9 -4 -5 13 4 13 8 18 11 10 2 -7 -1 -18 -6 -23z
m49 -1 c-6 -14 -13 -50 -16 -79 -3 -29 -11 -57 -17 -63 -7 -7 -9 2 -5 30 5 30
4 36 -4 25 -9 -12 -9 -11 -4 5 4 11 10 31 13 45 6 27 32 73 39 67 2 -2 -1 -16
-6 -30z m69 6 c-26 -80 -55 -153 -58 -144 -3 9 41 141 54 162 10 18 12 8 4
-18z m113 2 c4 -8 2 -17 -3 -20 -6 -4 -10 3 -10 14 0 25 6 27 13 6z m-264 -41
c-9 -22 -13 -25 -16 -12 -5 19 18 69 24 52 2 -6 -2 -24 -8 -40z m222 3 c-13
-13 -15 1 -4 30 7 17 8 17 11 -1 2 -10 -1 -23 -7 -29z m-260 -8 c-5 -13 -10
-19 -10 -12 -1 15 10 45 15 40 3 -2 0 -15 -5 -28z m212 1 c-3 -11 -10 -23 -16
-27 -7 -4 -8 0 -4 11 4 10 7 22 7 27 0 5 4 9 9 9 5 0 7 -9 4 -20z m1574 -2
c-3 -8 -6 -5 -6 6 -1 11 2 17 5 13 3 -3 4 -12 1 -19z m43 -23 c14 -33 19 -65
9 -59 -5 3 -9 16 -9 29 0 13 -4 27 -10 30 -5 3 -10 16 -9 28 0 14 2 16 6 7 2
-8 8 -24 13 -35z m137 -7 c-2 -13 -4 -5 -4 17 -1 22 1 32 4 23 2 -10 2 -28 0
-40z m48 26 c9 -15 12 -23 6 -20 -11 7 -35 46 -28 46 3 0 12 -12 22 -26z
m-2112 1 c-3 -9 -8 -14 -10 -11 -3 3 -2 9 2 15 9 16 15 13 8 -4z m328 -16 c-5
-13 -10 -19 -10 -12 -1 15 10 45 15 40 3 -2 0 -15 -5 -28z m59 21 c0 -5 -4
-10 -10 -10 -5 0 -10 5 -10 10 0 6 5 10 10 10 6 0 10 -4 10 -10z m30 3 c0 -5
-10 -19 -21 -33 l-20 -25 16 33 c15 30 25 41 25 25z m1290 -42 c0 -10 7 -26
15 -37 8 -10 15 -26 15 -33 0 -24 -15 -1 -38 58 -16 39 -18 50 -7 41 8 -7 15
-20 15 -29z m257 7 c-3 -7 -5 -2 -5 12 0 14 2 19 5 13 2 -7 2 -19 0 -25z
m-1886 -25 c-12 -20 -14 -14 -5 12 4 9 9 14 11 11 3 -2 0 -13 -6 -23z m1762
14 c3 -8 -3 -14 -14 -14 -10 -1 -19 3 -19 8 0 6 5 7 10 4 6 -3 10 -1 10 4 0
15 7 14 13 -2z m-1393 -1 c0 -2 -8 -10 -17 -17 -16 -13 -17 -12 -4 4 13 16 21
21 21 13z m-357 -46 c-3 -12 -8 -19 -11 -16 -5 6 5 36 12 36 2 0 2 -9 -1 -20z
m237 18 c0 -2 -7 -23 -14 -48 -11 -32 -15 -38 -15 -20 -1 34 9 70 20 70 5 0 9
-1 9 -2z m70 -29 c-11 -38 -20 -49 -20 -25 0 17 17 56 25 56 2 0 0 -14 -5 -31z
m46 3 c-9 -11 -27 -41 -40 -67 -14 -29 -26 -44 -30 -37 -4 7 -3 12 3 12 5 0
15 17 21 38 12 37 49 86 58 77 3 -3 -2 -13 -12 -23z m1223 -17 c0 -5 -4 -3 -9
5 -5 8 -9 22 -9 30 0 16 17 -16 18 -35z m-1379 25 c0 -5 -2 -10 -4 -10 -3 0
-8 5 -11 10 -3 6 -1 10 4 10 6 0 11 -4 11 -10z m80 0 c0 -6 -6 -23 -14 -38 -7
-15 -19 -53 -26 -84 -10 -53 -30 -80 -30 -42 0 39 44 174 57 174 7 0 13 -5 13
-10z m-323 -32 c-3 -7 -5 -2 -5 12 0 14 2 19 5 13 2 -7 2 -19 0 -25z m170 10
c-3 -8 -6 -5 -6 6 -1 11 2 17 5 13 3 -3 4 -12 1 -19z m1584 -21 c-13 -13 -26
-3 -16 12 3 6 11 8 17 5 6 -4 6 -10 -1 -17z m356 -9 c18 -18 33 -35 33 -39 0
-10 -70 7 -83 20 -7 7 -3 8 13 4 l23 -6 -22 22 c-12 12 -27 19 -33 15 -7 -4
-8 -3 -4 4 12 20 39 13 73 -20z m-1995 -30 c-6 -6 -12 -4 -15 6 -4 9 -2 16 3
16 6 0 11 8 11 18 1 10 3 8 6 -7 3 -13 0 -28 -5 -33z m298 -4 c-4 -25 -15 -53
-25 -62 -17 -16 -17 -16 -10 3 5 11 13 39 19 63 14 56 25 54 16 -4z m-253 14
c-3 -8 -6 -5 -6 6 -1 11 2 17 5 13 3 -3 4 -12 1 -19z m1645 -7 c2 -17 1 -28
-4 -25 -8 5 -12 54 -4 54 2 0 6 -13 8 -29z m86 4 c-3 -3 -9 2 -12 12 -6 14 -5
15 5 6 7 -7 10 -15 7 -18z m-1688 -16 c0 -16 -4 -28 -9 -25 -8 5 -3 56 5 56 2
0 4 -14 4 -31z m231 8 c-10 -9 -11 -8 -5 6 3 10 9 15 12 12 3 -3 0 -11 -7 -18z
m-60 -38 c-11 -24 -26 -62 -35 -84 -8 -22 -15 -33 -15 -25 -1 27 58 165 66
156 2 -2 -5 -23 -16 -47z m-139 -24 l-9 -40 -8 29 c-5 19 -4 31 5 36 6 4 11
10 11 14 -2 17 2 29 5 16 3 -9 1 -33 -4 -55z m-267 15 c-21 -22 -40 -38 -43
-36 -2 2 -17 0 -33 -4 -16 -5 -29 -5 -29 -1 0 10 62 46 83 47 10 1 26 9 35 18
9 9 18 16 21 16 3 0 -12 -18 -34 -40z m470 13 c-11 -28 -36 -115 -39 -141 -2
-13 -8 -28 -14 -34 -7 -7 -10 -3 -7 13 5 37 34 138 45 160 13 24 25 25 15 2z
m1641 -10 c-7 -7 -26 7 -26 19 0 6 6 6 15 -2 9 -7 13 -15 11 -17z m-403 -3 c3
-11 1 -20 -4 -20 -5 0 -9 9 -9 20 0 11 2 20 4 20 2 0 6 -9 9 -20z m107 5 c0
-8 -9 -15 -21 -15 -11 0 -17 5 -14 10 4 6 11 8 16 5 5 -4 9 -1 9 4 0 6 2 11 5
11 3 0 5 -7 5 -15z m368 -17 c22 -18 13 -29 -20 -26 -26 2 -34 8 -36 26 -3 21
-1 23 20 17 13 -4 29 -12 36 -17z m-381 -23 c0 -8 -4 -12 -9 -9 -5 3 -6 10 -3
15 9 13 12 11 12 -6z m360 -25 c12 0 25 -4 28 -10 8 -13 -1 -12 -47 0 -20 6
-39 17 -42 26 -5 13 -3 13 16 -1 13 -8 32 -15 45 -15z m-2226 -23 l-24 -22 19
27 c10 14 21 24 23 22 3 -3 -6 -15 -18 -27z m562 5 c-3 -12 -10 -22 -15 -22
-5 0 -7 3 -5 8 2 4 7 16 11 26 9 25 17 16 9 -12z m-613 3 c0 -8 -2 -15 -4 -15
-2 0 -6 7 -10 15 -3 8 -1 15 4 15 6 0 10 -7 10 -15z m1737 -7 c-3 -8 -6 -5 -6
6 -1 11 2 17 5 13 3 -3 4 -12 1 -19z m450 -10 c-3 -7 -5 -2 -5 12 0 14 2 19 5
13 2 -7 2 -19 0 -25z m-1430 -113 c-3 -20 -5 -13 -6 20 -2 40 -4 46 -12 30 -8
-17 -9 -17 -4 5 2 14 5 39 6 55 1 20 5 11 11 -25 5 -30 7 -68 5 -85z m1503
119 c0 -2 -7 -4 -15 -4 -8 0 -15 4 -15 10 0 5 7 7 15 4 8 -4 15 -8 15 -10z
m43 -11 c-7 -2 -19 -2 -25 0 -7 3 -2 5 12 5 14 0 19 -2 13 -5z m38 -10 c13
-16 12 -17 -3 -4 -10 7 -18 15 -18 17 0 8 8 3 21 -13z m-2316 -3 c4 -6 -7 -8
-27 -6 -18 2 -40 -1 -48 -7 -13 -11 -13 -10 -1 6 14 18 66 23 76 7z m648 -2
c-4 -7 -10 -33 -13 -58 l-6 -45 -5 47 c-2 25 -1 44 2 42 4 -2 9 3 13 11 3 8 8
15 11 15 4 0 3 -6 -2 -12z m1638 -9 c9 -5 22 -22 29 -39 18 -45 30 -36 25 18
-5 40 -4 43 5 22 6 -14 16 -72 21 -130 5 -58 12 -139 15 -180 8 -86 -10 -213
-32 -231 -8 -6 -14 -23 -14 -36 0 -54 -107 -152 -251 -231 -93 -50 -256 -117
-324 -132 -27 -6 -55 -16 -62 -22 -11 -8 -12 -7 -6 8 6 16 5 17 -9 6 -10 -8
-17 -9 -20 -2 -2 7 -13 6 -35 -2 -34 -13 -58 -4 -33 12 8 5 37 16 64 25 103
34 118 59 95 166 -14 65 -68 123 -125 134 l-39 7 50 18 c53 18 175 79 211 105
21 15 23 14 44 -19 12 -20 31 -81 43 -136 21 -98 37 -128 37 -72 0 46 -28 143
-60 206 -31 60 -32 73 -7 63 23 -9 48 -75 63 -166 20 -119 23 -131 34 -131 26
0 -1 215 -35 280 -8 16 -24 34 -36 40 -18 10 -13 17 70 78 50 37 91 70 91 73
0 4 -8 10 -17 13 -11 4 -28 -5 -52 -26 -34 -32 -28 -17 12 28 17 20 22 21 71
10 29 -7 58 -16 64 -20 20 -12 49 -77 62 -139 7 -31 15 -55 18 -53 8 9 -29
142 -48 174 -18 29 -91 72 -122 72 -7 0 -1 12 14 26 29 30 63 26 74 -8 3 -11
15 -31 27 -44 11 -13 22 -31 23 -38 1 -8 7 -22 14 -33 9 -15 10 -11 7 25 -4
28 -2 40 5 35 7 -3 8 -1 4 6 -4 6 -11 9 -16 6 -4 -3 -14 3 -21 13 -13 15 -12
16 4 3 19 -15 24 -2 5 17 -9 9 -9 12 2 12 7 0 10 3 6 8 -8 7 -13 9 -45 11 -10
0 -27 9 -38 19 -10 9 -14 14 -9 10 14 -11 46 -10 46 2 0 6 -9 10 -19 10 -31 0
-33 16 -10 62 42 84 69 98 130 67z m-1604 -11 c-3 -8 -6 -5 -6 6 -1 11 2 17 5
13 3 -3 4 -12 1 -19z m-681 -22 c11 -23 10 -23 -25 -15 -21 5 -40 4 -45 -1
-16 -16 -24 -11 -19 11 3 11 11 18 19 15 7 -3 16 -1 19 4 11 18 40 10 51 -14z
m584 -3 c0 -19 -3 -24 -10 -17 -6 6 -8 18 -4 27 9 24 14 21 14 -10z m307 -20
c-3 -10 -5 -2 -5 17 0 19 2 27 5 18 2 -10 2 -26 0 -35z m790 25 c-3 -8 -6 -5
-6 6 -1 11 2 17 5 13 3 -3 4 -12 1 -19z m-999 -73 l1 -20 -9 20 c-5 11 -8 31
-8 45 l0 25 8 -25 c4 -14 8 -34 8 -45z m-710 43 c18 3 24 1 17 -5 -13 -13 -75
-25 -75 -15 0 13 24 34 28 24 1 -5 15 -7 30 -4z m629 -20 c-3 -7 -5 -2 -5 12
0 14 2 19 5 13 2 -7 2 -19 0 -25z m-593 -14 c5 -14 4 -15 -8 -5 -10 8 -16 9
-21 1 -3 -5 0 -10 7 -11 7 -1 -7 -5 -31 -10 -59 -11 -62 -5 -9 19 54 25 55 25
62 6z m706 -26 c0 -38 -5 -34 -13 10 -4 21 -3 31 3 27 6 -3 10 -20 10 -37z
m137 -15 c-3 -10 -5 -2 -5 17 0 19 2 27 5 18 2 -10 2 -26 0 -35z m30 0 c-3
-10 -5 -2 -5 17 0 19 2 27 5 18 2 -10 2 -26 0 -35z m957 22 c-16 -24 -34 -26
-34 -3 0 6 3 9 6 5 4 -3 13 0 21 8 22 23 25 18 7 -10z m-1194 5 c0 -5 -2 -10
-4 -10 -3 0 -8 5 -11 10 -3 6 -1 10 4 10 6 0 11 -4 11 -10z m687 -32 c-3 -7
-5 -2 -5 12 0 14 2 19 5 13 2 -7 2 -19 0 -25z m450 -5 c-3 -10 -5 -4 -5 12 0
17 2 24 5 18 2 -7 2 -21 0 -30z m-1746 -18 c9 -23 16 -31 21 -22 4 6 8 8 8 2
0 -21 -16 -33 -59 -45 -49 -13 -48 -13 -53 19 -2 20 2 24 26 27 15 1 31 6 35
9 3 4 -5 5 -19 4 -43 -4 -60 0 -60 15 0 18 15 24 57 25 27 1 33 -4 44 -34z
m956 13 c-3 -8 -6 -5 -6 6 -1 11 2 17 5 13 3 -3 4 -12 1 -19z m70 -10 c-3 -8
-6 -5 -6 6 -1 11 2 17 5 13 3 -3 4 -12 1 -19z m1343 -68 l-7 -65 -1 80 c-1 45
2 73 7 65 4 -8 5 -44 1 -80z m-643 58 c-3 -8 -6 -5 -6 6 -1 11 2 17 5 13 3 -3
4 -12 1 -19z m314 5 c-20 -36 -57 -81 -91 -109 l-35 -29 40 50 c44 54 88 105
93 105 1 0 -2 -8 -7 -17z m418 -25 c10 -24 21 -77 25 -119 3 -42 10 -89 16
-103 15 -39 12 -128 -5 -167 l-14 -34 -1 60 c0 33 -6 87 -14 120 -8 33 -17 96
-20 140 -4 44 -9 95 -12 113 -8 45 4 40 25 -10z m-729 -43 c-7 -14 -17 -25
-21 -25 -5 0 0 13 9 29 20 36 31 32 12 -4z m677 -27 c-2 -13 -4 -3 -4 22 0 25
2 35 4 23 2 -13 2 -33 0 -45z m-2354 -97 c-5 -9 -23 -17 -39 -19 -25 -2 -33 4
-56 41 -16 24 -28 48 -28 52 0 9 31 34 43 35 16 0 6 -19 -13 -25 -17 -5 -18
-10 -9 -27 17 -33 52 -68 66 -68 16 0 18 53 2 81 -8 17 -7 23 8 34 17 13 19
10 27 -37 6 -33 6 -56 -1 -67z m47 47 c29 -38 30 -40 6 -18 -25 23 -52 60 -43
60 2 0 19 -19 37 -42z m1591 25 c-17 -29 -43 -56 -91 -94 -52 -42 -82 -55 -74
-34 3 8 9 13 12 12 4 -1 18 6 32 16 13 9 20 17 15 18 -6 0 0 4 13 9 12 5 22
16 22 25 0 8 6 15 13 15 8 0 24 11 37 25 28 29 35 32 21 8z m-1683 -22 c4 -23
4 -23 -21 -5 -17 13 -21 21 -13 26 17 12 31 4 34 -21z m1874 -71 c-32 -30 -59
-47 -68 -43 -12 4 -12 7 3 18 10 7 21 11 24 9 4 -2 13 4 20 13 12 15 12 16 -4
10 -24 -9 -12 10 16 25 20 10 21 10 8 -5 -19 -24 1 -21 22 3 9 11 20 20 24 20
5 0 -16 -23 -45 -50z m519 7 c-8 -8 -11 -7 -11 4 0 20 13 34 18 19 3 -7 -1
-17 -7 -23z m-2275 -2 c21 -14 43 -24 49 -21 7 2 33 -13 59 -33 87 -68 378
-199 450 -202 12 0 37 -7 56 -14 l35 -14 -45 5 c-42 5 -219 55 -265 74 -107
47 -162 73 -177 87 -18 16 -18 16 -12 0 6 -17 135 -87 160 -87 36 0 16 -21
-52 -54 -47 -24 -79 -47 -86 -62 -6 -13 -14 -21 -18 -19 -4 2 -10 -25 -13 -62
-4 -37 -12 -70 -19 -75 -24 -15 -59 -8 -84 17 -25 25 -25 28 -19 124 8 111 3
137 -28 147 -12 3 -52 24 -89 46 -53 30 -68 44 -68 62 0 31 14 41 85 59 33 9
50 16 38 16 -16 1 -21 6 -17 16 8 21 17 19 60 -10z m2260 -34 c-18 -65 -18
-67 -2 -47 22 28 20 16 -10 -46 -23 -48 -25 -50 -20 -18 3 19 9 66 12 104 6
55 9 65 16 46 5 -12 6 -30 4 -39z m-2652 -240 c6 -16 5 -21 -3 -17 -8 5 -11
-11 -11 -51 0 -76 31 -140 106 -216 74 -75 52 -74 -26 2 -129 126 -171 323
-106 491 l21 55 6 -120 c3 -66 9 -131 13 -144z m2061 197 c-1 -13 -3 -26 -4
-30 -3 -18 -243 -123 -254 -111 -3 2 29 22 71 44 43 22 100 57 127 79 59 46
63 47 60 18z m-268 -154 c-3 -3 -12 -4 -19 -1 -8 3 -5 6 6 6 11 1 17 -2 13 -5z
m-52 -14 c-11 -5 -33 -8 -50 -8 -29 1 -29 1 5 8 49 10 69 10 45 0z m-92 -17
c-7 -2 -21 -2 -30 0 -10 3 -4 5 12 5 17 0 24 -2 18 -5z m258 -14 c30 -30 18
-33 -25 -8 -32 19 -47 21 -109 16 -43 -3 -60 -2 -42 3 17 4 58 8 93 9 50 1 66
-3 83 -20z m-218 -6 c-7 -2 -19 -2 -25 0 -7 3 -2 5 12 5 14 0 19 -2 13 -5z
m-616 -9 c-3 -3 -12 -4 -19 -1 -8 3 -5 6 6 6 11 1 17 -2 13 -5z m1643 -1 c0
-5 -10 -19 -21 -33 l-21 -25 18 33 c18 32 24 38 24 25z m-820 -19 c0 -2 -9 -4
-20 -4 -11 0 -20 4 -20 9 0 5 9 7 20 4 11 -3 20 -7 20 -9z m760 -8 c0 -2 -8
-10 -17 -17 -16 -13 -17 -12 -4 4 13 16 21 21 21 13z m-2630 -105 c-1 -13 -29
45 -29 59 0 8 6 0 14 -19 8 -18 15 -36 15 -40z m2600 66 c0 -1 -24 -25 -52
-52 l-53 -50 50 53 c46 48 55 57 55 49z m-873 -13 c-3 -3 -12 -4 -19 -1 -8 3
-5 6 6 6 11 1 17 -2 13 -5z m220 -86 c-2 -18 -4 -6 -4 27 0 33 2 48 4 33 2
-15 2 -42 0 -60z m543 68 c0 -2 -8 -10 -17 -17 -16 -13 -17 -12 -4 4 13 16 21
21 21 13z m-2459 -83 c13 -16 12 -17 -3 -4 -17 13 -22 21 -14 21 2 0 10 -8 17
-17z m113 -100 c36 -39 22 -43 -17 -5 -17 18 -26 32 -20 32 7 0 23 -12 37 -27z"/>
<path d="M2908 3843 c12 -2 30 -2 40 0 9 3 -1 5 -23 4 -22 0 -30 -2 -17 -4z"/>
<path d="M2178 3773 c6 -2 18 -2 25 0 6 3 1 5 -13 5 -14 0 -19 -2 -12 -5z"/>
<path d="M1396 3653 c-6 -14 -5 -15 5 -6 7 7 10 15 7 18 -3 3 -9 -2 -12 -12z"/>
<path d="M2805 3600 c-44 -4 -138 -13 -210 -20 -73 -7 -178 -10 -240 -7 -69 4
-104 2 -95 -3 24 -15 314 -11 450 5 244 31 282 41 95 25z"/>
<path d="M2183 3583 c9 -2 23 -2 30 0 6 3 -1 5 -18 5 -16 0 -22 -2 -12 -5z"/>
<path d="M2615 3494 c-69 -19 -109 -24 -172 -22 -58 2 -77 0 -65 -7 9 -5 55
-10 102 -9 67 1 104 7 175 31 108 37 85 41 -40 7z"/>
<path d="M3241 3506 c8 -8 119 -55 119 -50 0 3 -25 16 -55 30 -52 22 -74 29
-64 20z"/>
<path d="M2105 3441 c-17 -4 18 -7 77 -6 60 0 108 3 108 8 0 9 -143 7 -185 -2z"/>
<path d="M2323 3326 c4 -10 8 -41 8 -69 1 -51 1 -51 9 -14 8 43 3 84 -13 94
-7 4 -8 0 -4 -11z"/>
<path d="M2675 3306 c-27 -41 -18 -166 18 -233 31 -60 31 -63 15 -63 -6 0 -8
3 -5 7 4 3 -7 14 -23 24 -17 11 -30 23 -30 29 0 5 -8 10 -17 10 -13 0 -8 -9
20 -35 43 -40 45 -45 15 -45 -44 0 -67 12 -77 39 l-9 26 -1 -32 c-1 -36 6 -43
52 -49 44 -5 87 -24 87 -38 -1 -31 -18 -41 -52 -29 -53 19 -101 24 -133 15
-28 -9 -27 -10 34 -23 44 -9 65 -19 69 -31 2 -9 10 -14 17 -12 8 3 16 -9 23
-33 17 -61 41 -122 59 -149 9 -14 17 -35 18 -48 3 -27 33 -76 46 -76 14 0 11
11 -8 34 -17 20 -17 20 0 7 17 -13 18 -12 12 15 -4 16 -24 58 -45 94 -55 95
-73 137 -64 151 4 8 3 9 -4 5 -12 -7 -17 16 -6 27 9 9 35 -4 28 -14 -8 -13 37
-48 62 -49 12 0 51 16 87 35 36 19 69 35 73 35 9 0 -56 -44 -117 -79 l-49 -28
22 -33 c13 -18 39 -44 58 -59 l35 -25 -35 37 -34 38 69 -34 c120 -58 235 -87
346 -87 63 0 208 27 224 41 13 13 1 12 -105 -12 -65 -14 -113 -19 -150 -15
-148 15 -375 103 -354 137 3 5 -6 5 -19 0 -14 -6 -28 -7 -31 -3 -9 8 110 42
148 42 19 0 27 4 23 13 -3 8 8 21 26 32 18 10 26 12 20 4 -22 -23 -16 -49 11
-49 36 0 52 54 19 64 -11 3 -7 4 7 3 22 -2 25 -6 22 -38 l-3 -36 62 -7 c34 -3
79 -6 100 -6 38 0 51 -12 27 -24 -7 -3 -1 -4 15 -1 15 3 27 1 27 -4 0 -4 -17
-12 -37 -16 -21 -4 -69 -13 -108 -21 l-70 -13 90 4 c50 2 113 12 140 20 38 12
70 15 131 10 137 -11 224 12 196 52 -33 48 -41 100 -10 69 26 -26 29 -20 22
47 -9 85 -16 95 -43 68 l-22 -22 3 32 c3 31 1 33 -59 53 -63 21 -115 56 -63
41 19 -5 21 -4 10 4 -8 6 -42 11 -75 12 -46 1 -53 3 -30 8 27 6 25 8 -22 13
-29 4 -67 3 -85 -2 -30 -9 -31 -8 -14 5 23 17 4 20 -26 4 -11 -6 -18 -7 -14
-1 7 11 -83 25 -110 16 -12 -3 -10 1 6 11 20 13 21 15 5 11 -76 -18 -114 -30
-140 -44 -24 -12 -27 -12 -18 -1 19 23 -37 17 -77 -8 -19 -12 -37 -19 -40 -15
-8 12 -30 8 -40 -8 -5 -9 -5 -19 2 -27 7 -9 7 -13 -1 -13 -6 0 -11 4 -11 9 0
10 -54 34 -76 34 -30 0 -45 115 -24 186 12 44 6 50 -15 17z m255 -169 c0 -2
-10 -12 -22 -23 l-23 -19 19 23 c18 21 26 27 26 19z m483 -54 c-7 -2 -19 -2
-25 0 -7 3 -2 5 12 5 14 0 19 -2 13 -5z m-196 -119 c-3 -3 -12 -4 -19 -1 -8 3
-5 6 6 6 11 1 17 -2 13 -5z m403 -24 c-6 -12 -14 -20 -17 -17 -2 3 1 14 8 26
7 11 15 18 17 16 2 -2 -2 -13 -8 -25z m-167 -2 c9 -5 21 -7 25 -5 4 3 13 -1
20 -9 11 -12 7 -13 -30 -8 -24 4 -67 12 -95 20 -34 8 -63 10 -82 4 -17 -5 -40
-5 -53 -2 -18 6 -14 8 22 12 57 7 170 0 193 -12z m-108 -15 c36 -6 38 -7 15
-14 -37 -10 -62 -10 -55 0 3 5 -3 12 -12 14 -29 8 7 8 52 0z m292 -25 c-3 -8
-6 -5 -6 6 -1 11 2 17 5 13 3 -3 4 -12 1 -19z m-246 -17 c-12 -8 -51 -4 -51 5
0 2 15 4 33 4 22 0 28 -3 18 -9z m89 -11 c-8 -5 -33 -9 -55 -9 -31 0 -36 2
-20 9 29 13 94 13 75 0z m-343 -17 c-9 -9 -20 -13 -24 -9 -4 4 -1 11 7 16 25
16 35 11 17 -7z m403 7 c0 -5 -7 -10 -16 -10 -8 0 -12 5 -9 10 3 6 10 10 16
10 5 0 9 -4 9 -10z m-743 -6 c-3 -3 -12 -4 -19 -1 -8 3 -5 6 6 6 11 1 17 -2
13 -5z m640 -10 c-3 -3 -12 -4 -19 -1 -8 3 -5 6 6 6 11 1 17 -2 13 -5z m178
-38 c1 -18 -3 -22 -24 -18 -13 3 -22 1 -18 -4 6 -10 -118 -12 -128 -3 -3 4 18
12 47 19 29 7 67 19 83 26 34 14 40 11 40 -20z"/>
<path d="M1689 3293 l-24 -28 28 24 c25 23 32 31 24 31 -2 0 -14 -12 -28 -27z"/>
<path d="M2455 3303 c17 -41 27 -107 23 -162 -3 -68 5 -71 20 -9 12 47 3 108
-24 159 -16 31 -31 40 -19 12z"/>
<path d="M3431 3304 c0 -10 13 -29 101 -151 78 -109 106 -128 34 -23 -71 102
-136 186 -135 174z"/>
<path d="M2781 3274 c0 -11 3 -14 6 -6 3 7 2 16 -1 19 -3 4 -6 -2 -5 -13z"/>
<path d="M2772 3225 c0 -16 2 -22 5 -12 2 9 2 23 0 30 -3 6 -5 -1 -5 -18z"/>
<path d="M2915 3210 c-26 -5 4 -7 85 -7 93 0 113 2 80 8 -53 9 -110 9 -165 -1z"/>
<path d="M1950 3180 c-231 -48 -261 -58 -302 -97 -22 -22 -43 -33 -52 -30 -8
3 -20 -1 -26 -9 -7 -8 -18 -14 -24 -14 -16 0 -76 -56 -77 -72 0 -7 -4 -4 -9 7
-9 24 -11 19 -30 -67 -11 -48 -11 -60 1 -74 12 -14 10 -19 -9 -34 -31 -25 -28
-33 13 -28 29 3 35 1 35 -14 0 -10 -6 -18 -13 -18 -7 0 -18 -9 -24 -19 -11
-18 -8 -19 66 -16 46 2 91 10 109 19 109 56 228 75 437 68 l90 -3 -35 -18
c-76 -40 -166 -54 -300 -47 -68 4 -122 5 -119 2 3 -3 48 -12 100 -21 112 -18
143 -13 324 43 73 22 120 42 119 50 -1 6 -2 17 -3 22 0 6 -10 10 -20 10 -10 0
-21 6 -24 14 -4 9 0 13 11 11 9 -2 25 -4 34 -4 11 -1 18 -11 20 -28 2 -17 8
-27 16 -25 8 1 11 -2 7 -8 -3 -6 -10 -8 -15 -5 -4 3 -13 -2 -20 -10 -7 -8 -19
-15 -26 -15 -8 0 -39 -13 -69 -29 -30 -16 -87 -36 -127 -45 -174 -37 -170 -36
-93 -30 89 7 161 27 247 70 37 19 72 34 77 34 6 0 1 -21 -9 -46 -24 -54 -24
-60 -6 -45 8 7 30 45 49 85 40 82 57 100 87 91 20 -6 29 -45 10 -45 -5 0 -10
-5 -10 -10 0 -19 48 21 54 45 4 16 22 33 49 46 47 25 45 27 -32 31 -35 2 -56
8 -59 17 -3 8 -1 11 4 9 5 -3 27 12 49 34 22 22 33 37 25 32 -13 -7 -13 -5 -1
9 7 9 11 24 7 32 -3 9 -2 13 4 10 13 -8 13 15 0 35 -7 12 -11 10 -19 -10 -5
-14 -10 -20 -10 -13 -1 6 -8 19 -17 28 -15 15 -18 13 -41 -19 -24 -37 -42 -46
-44 -23 0 6 -4 2 -9 -10 -5 -13 -14 -23 -19 -23 -11 0 -3 38 10 46 5 3 9 12 9
21 0 11 -5 9 -21 -8 -15 -18 -19 -19 -15 -6 5 15 2 16 -14 7 -25 -14 -30 -13
-30 6 0 13 -3 13 -29 -2 -28 -16 -31 -16 -127 23 -54 23 -105 38 -114 35 -10
-4 -3 -9 18 -13 48 -10 51 -19 6 -19 -21 0 -48 -7 -58 -15 -11 -8 -36 -14 -55
-14 -20 1 -28 3 -18 6 10 3 30 11 45 20 26 14 26 15 -23 10 -27 -3 -71 -15
-97 -26 -54 -23 -64 -20 -17 4 52 28 24 28 -32 1 -52 -26 -103 -35 -83 -17 30
31 126 62 274 90 91 18 181 36 200 40 l35 9 -40 0 c-22 1 -101 -12 -175 -28z
m120 -96 c0 -2 -9 -4 -21 -4 -11 0 -18 4 -14 10 5 8 35 3 35 -6z m40 -14 c8
-5 11 -10 5 -10 -5 0 -17 5 -25 10 -8 5 -10 10 -5 10 6 0 17 -5 25 -10z m-246
-167 c-10 -7 -31 -13 -46 -13 -16 0 -47 -9 -68 -20 -22 -11 -40 -16 -40 -10 0
5 6 10 14 10 8 0 16 7 19 15 7 16 56 31 105 31 30 0 32 -1 16 -13z m337 -16
c-1 -4 -3 -7 -6 -7 -3 0 -20 1 -37 1 l-33 1 30 8 c34 9 47 8 46 -3z m-543 -8
c-2 -6 -7 -10 -11 -10 -3 0 -22 -6 -42 -15 -50 -21 -44 -7 8 16 51 23 49 22
45 9z m107 -25 c-26 -20 -55 -36 -55 -30 0 5 63 46 70 46 3 -1 -4 -8 -15 -16z
m125 -24 c-6 -11 -15 -20 -20 -20 -16 0 -11 18 8 29 24 14 24 14 12 -9z m-330
-32 c0 -6 -6 -5 -15 2 -8 7 -15 14 -15 16 0 2 7 1 15 -2 8 -4 15 -11 15 -16z
m69 -14 c-16 -20 -149 -87 -157 -80 -3 3 19 17 49 31 30 15 68 35 84 45 38 23
41 24 24 4z"/>
<path d="M3138 3193 c6 -2 18 -2 25 0 6 3 1 5 -13 5 -14 0 -19 -2 -12 -5z"/>
<path d="M2512 3115 c0 -16 2 -22 5 -12 2 9 2 23 0 30 -3 6 -5 -1 -5 -18z"/>
<path d="M3666 2761 c-14 -22 -59 -32 -141 -33 -77 -1 -78 -2 -36 -11 31 -7
64 -7 109 1 68 11 87 22 80 43 -3 10 -6 11 -12 0z"/>
<path d="M2339 2733 c-6 -15 -14 -30 -17 -33 -21 -14 -132 -205 -132 -226 0
-16 125 116 137 146 14 33 34 140 26 140 -2 0 -8 -12 -14 -27z m-50 -118 c-24
-40 -47 -60 -29 -24 12 24 40 59 46 59 2 0 -6 -16 -17 -35z m-58 -98 c-10 -9
-11 -8 -5 6 3 10 9 15 12 12 3 -3 0 -11 -7 -18z"/>
<path d="M3275 2700 c-29 -7 -28 -8 10 -8 22 0 49 3 60 8 17 7 15 9 -10 8 -16
0 -43 -4 -60 -8z"/>
<path d="M3065 2690 c39 -9 182 -14 174 -6 -2 2 -51 6 -109 9 -68 3 -91 2 -65
-3z"/>
<path d="M1590 2675 c0 -10 62 -36 142 -59 46 -14 71 -25 57 -25 -14 -1 -34
-8 -45 -16 -17 -12 -13 -12 30 0 27 8 70 15 95 15 38 1 24 6 -87 35 -73 19
-141 39 -152 45 -20 11 -40 13 -40 5z"/>
<path d="M2966 2629 c2 -4 30 -18 62 -30 48 -19 81 -23 217 -27 105 -2 157 0
150 6 -5 6 -80 12 -165 14 -120 4 -168 9 -212 25 -31 11 -55 16 -52 12z"/>
<path d="M2093 2610 c-12 -5 -64 -16 -115 -24 -143 -23 -210 -38 -204 -44 15
-15 285 36 336 63 28 16 17 19 -17 5z"/>
<path d="M1928 2603 c6 -2 18 -2 25 0 6 3 1 5 -13 5 -14 0 -19 -2 -12 -5z"/>
<path d="M3090 2530 c23 -17 130 -71 130 -65 0 2 -28 19 -62 37 -70 37 -90 45
-68 28z"/>
<path d="M1965 2515 c-39 -17 -21 -18 25 0 19 7 28 14 20 14 -8 0 -28 -6 -45
-14z"/>
<path d="M2750 2484 c0 -13 80 -104 91 -104 12 0 6 35 -10 54 -7 9 -17 13 -22
11 -4 -3 -11 0 -16 7 -12 19 -43 42 -43 32z"/>
<path d="M3737 2400 c-8 -46 -46 -129 -59 -130 -13 0 -58 -43 -58 -54 0 -6 -9
-22 -19 -35 l-19 -25 5 30 4 29 -21 -25 c-29 -33 -96 -149 -105 -180 -4 -17
-3 -21 3 -12 15 21 20 -15 15 -98 -5 -80 2 -140 17 -140 6 0 10 20 10 45 0
110 35 199 109 279 26 28 55 63 64 79 24 38 69 211 65 250 -3 30 -4 29 -11
-13z"/>
<path d="M3175 2395 c58 -52 140 -115 151 -115 16 0 -128 121 -166 139 -18 9
-13 2 15 -24z"/>
<path d="M2886 2359 c16 -24 32 -46 37 -47 4 -2 4 -9 1 -14 -4 -6 -3 -8 3 -5
18 12 74 -41 166 -155 112 -140 148 -196 177 -275 12 -35 25 -63 27 -63 10 0
-9 76 -29 120 -12 25 -20 48 -20 53 1 4 -2 7 -8 7 -5 0 -6 7 -3 17 5 12 3 14
-7 8 -9 -5 -11 -4 -6 4 4 6 -3 26 -16 44 -34 49 -152 172 -161 169 -5 -1 -6 2
-3 7 6 8 -42 55 -139 135 l-48 40 29 -45z m256 -241 c32 -46 14 -32 -32 25
-25 29 -32 41 -16 27 15 -14 37 -37 48 -52z"/>
<path d="M2763 2335 c0 -27 2 -38 4 -22 2 15 2 37 0 50 -2 12 -4 0 -4 -28z"/>
<path d="M2052 2203 c-27 -30 -35 -35 -42 -23 -7 12 -9 11 -8 -5 1 -11 -15
-45 -35 -75 -60 -91 -118 -276 -91 -293 5 -3 10 11 11 31 4 80 68 212 171 356
40 56 38 58 -6 9z"/>
<path d="M3307 2160 c-3 -13 -1 -32 5 -43 5 -11 14 -51 19 -89 9 -73 56 -273
70 -298 16 -29 9 40 -17 163 -14 67 -29 147 -34 178 -4 31 -15 69 -23 84 -14
28 -14 28 -20 5z"/>
<path d="M1737 2065 c-9 -19 -17 -50 -16 -68 0 -27 3 -23 19 28 23 71 22 91
-3 40z"/>
<path d="M2665 1575 c-20 -8 -153 -16 -248 -16 -110 0 -121 -7 -90 -59 l18
-32 205 6 c152 5 218 11 255 23 31 11 43 18 32 21 -14 3 -16 7 -6 18 9 11 7
14 -12 15 -22 0 -22 1 -5 8 20 8 20 8 0 13 -23 6 -135 8 -149 3z"/>
<path d="M3250 1555 c7 -9 15 -13 17 -11 7 7 -7 26 -19 26 -6 0 -6 -6 2 -15z"/>
<path d="M2573 1289 c9 -5 22 -7 29 -3 7 4 8 3 4 -4 -5 -8 1 -12 14 -12 12 0
18 4 15 10 -4 6 11 8 41 5 26 -2 50 -9 54 -15 4 -6 24 -13 44 -16 45 -5 40 11
-10 32 -40 17 -220 20 -191 3z"/>
<path d="M2310 1160 c0 -5 14 -10 32 -10 36 0 35 4 -4 14 -17 4 -28 2 -28 -4z"/>
<path d="M2832 1030 c0 -14 2 -19 5 -12 2 6 2 18 0 25 -3 6 -5 1 -5 -13z"/>
<path d="M2682 1020 c0 -14 2 -19 5 -12 2 6 2 18 0 25 -3 6 -5 1 -5 -13z"/>
<path d="M1506 1103 c-6 -14 -5 -15 5 -6 7 7 10 15 7 18 -3 3 -9 -2 -12 -12z"/>
<path d="M3735 930 c30 -31 34 -42 38 -100 3 -65 3 -65 5 15 2 92 -12 126 -53
123 -25 -2 -25 -3 10 -38z"/>
<path d="M3653 923 c9 -2 23 -2 30 0 6 3 -1 5 -18 5 -16 0 -22 -2 -12 -5z"/>
<path d="M3700 911 c0 -5 9 -11 20 -14 31 -8 24 -27 -10 -27 -16 0 -30 -5 -30
-11 0 -6 14 -9 32 -7 37 3 49 29 24 53 -16 17 -36 20 -36 6z"/>
<path d="M3600 890 c0 -6 7 -10 15 -10 8 0 15 2 15 4 0 2 -7 6 -15 10 -8 3
-15 1 -15 -4z"/>
<path d="M3792 805 c-1 -55 -5 -118 -7 -140 -5 -34 -4 -37 5 -16 6 14 9 73 7
140 l-3 116 -2 -100z"/>
<path d="M3747 793 c-2 -4 -4 -42 -5 -83 l0 -75 9 79 c8 76 7 98 -4 79z"/>
<path d="M3711 514 c0 -11 3 -14 6 -6 3 7 2 16 -1 19 -3 4 -6 -2 -5 -13z"/>
<path d="M3721 464 c0 -11 3 -14 6 -6 3 7 2 16 -1 19 -3 4 -6 -2 -5 -13z"/>
<path d="M1415 970 c-3 -5 -2 -10 4 -10 5 0 13 5 16 10 3 6 2 10 -4 10 -5 0
-13 -4 -16 -10z"/>
<path d="M1420 791 c0 -5 9 -7 20 -4 11 3 20 7 20 9 0 2 -9 4 -20 4 -11 0 -20
-4 -20 -9z"/>
<path d="M1694 572 c35 -38 27 -54 -39 -73 -46 -14 -60 -29 -27 -29 10 0 27 7
38 15 29 22 32 19 28 -27 l-3 -43 8 37 c4 21 15 46 25 57 21 23 14 42 -27 71
l-32 23 29 -31z"/>
<path d="M1510 573 c1 -12 79 -63 96 -63 9 0 14 6 11 13 -2 6 -11 12 -20 12
-18 0 -21 7 -14 28 3 8 11 6 27 -8 l23 -20 -12 23 c-10 18 -20 22 -61 22 -28
0 -50 -3 -50 -7z"/>
<path d="M1665 247 c-22 -32 -18 -64 10 -83 46 -30 71 -6 74 71 1 29 -2 31
-34 32 -25 0 -40 -5 -50 -20z m68 -41 c-3 -47 -6 -51 -31 -37 -44 23 -39 84 6
79 25 -3 27 -6 25 -42z"/>
<path d="M1700 219 c0 -11 4 -18 10 -14 5 3 7 12 3 20 -7 21 -13 19 -13 -6z"/>
<path d="M610 2419 c0 -5 5 -7 10 -4 6 3 10 8 10 11 0 2 -4 4 -10 4 -5 0 -10
-5 -10 -11z"/>
<path d="M718 2413 c23 -2 59 -2 80 0 20 2 1 4 -43 4 -44 0 -61 -2 -37 -4z"/>
<path d="M943 2403 c9 -2 23 -2 30 0 6 3 -1 5 -18 5 -16 0 -22 -2 -12 -5z"/>
<path d="M590 2310 c-13 -8 -13 -10 1 -10 13 0 17 -19 22 -112 4 -63 12 -116
18 -122 9 -8 10 -2 5 24 -4 19 -10 79 -13 133 -3 53 -9 97 -12 97 -3 0 -13 -5
-21 -10z"/>
<path d="M4190 2290 c0 -5 4 -10 9 -10 6 0 13 5 16 10 3 6 -1 10 -9 10 -9 0
-16 -4 -16 -10z"/>
<path d="M938 2013 c12 -2 32 -2 45 0 12 2 2 4 -23 4 -25 0 -35 -2 -22 -4z"/>
<path d="M1038 2013 c7 -3 16 -2 19 1 4 3 -2 6 -13 5 -11 0 -14 -3 -6 -6z"/>
<path d="M1048 1973 c6 -2 18 -2 25 0 6 3 1 5 -13 5 -14 0 -19 -2 -12 -5z"/>
<path d="M938 1963 c6 -2 18 -2 25 0 6 3 1 5 -13 5 -14 0 -19 -2 -12 -5z"/>
<path d="M808 1943 c7 -3 16 -2 19 1 4 3 -2 6 -13 5 -11 0 -14 -3 -6 -6z"/>
<path d="M4085 1940 c3 -5 14 -10 23 -10 15 0 15 2 2 10 -20 13 -33 13 -25 0z"/>
<path d="M663 1919 c14 -8 22 -8 30 0 8 8 3 11 -18 11 -26 -1 -28 -2 -12 -11z"/>
<path d="M988 1923 c6 -2 18 -2 25 0 6 3 1 5 -13 5 -14 0 -19 -2 -12 -5z"/>
<path d="M933 1913 c9 -2 23 -2 30 0 6 3 -1 5 -18 5 -16 0 -22 -2 -12 -5z"/>
<path d="M878 1903 c6 -2 18 -2 25 0 6 3 1 5 -13 5 -14 0 -19 -2 -12 -5z"/>
<path d="M823 1893 c9 -2 23 -2 30 0 6 3 -1 5 -18 5 -16 0 -22 -2 -12 -5z"/>
<path d="M768 1883 c6 -2 18 -2 25 0 6 3 1 5 -13 5 -14 0 -19 -2 -12 -5z"/>
<path d="M718 1873 c6 -2 18 -2 25 0 6 3 1 5 -13 5 -14 0 -19 -2 -12 -5z"/>
<path d="M665 1860 c-16 -7 -14 -8 12 -7 17 1 29 5 26 10 -5 9 -12 8 -38 -3z"/>
<path d="M716 1827 c3 -10 9 -15 12 -12 3 3 0 11 -7 18 -10 9 -11 8 -5 -6z"/>
<path d="M1070 1824 c-166 -31 -316 -67 -325 -76 -7 -8 -4 -9 10 -3 11 4 105
25 210 46 104 21 194 41 200 43 19 8 -20 4 -95 -10z"/>
<path d="M1185 1760 c-25 -11 1 -11 35 0 20 6 21 8 5 8 -11 0 -29 -3 -40 -8z"/>
<path d="M1138 1743 c7 -3 16 -2 19 1 4 3 -2 6 -13 5 -11 0 -14 -3 -6 -6z"/>
<path d="M1098 1733 c7 -3 16 -2 19 1 4 3 -2 6 -13 5 -11 0 -14 -3 -6 -6z"/>
<path d="M937 1708 c-54 -12 -96 -23 -93 -25 4 -4 228 37 235 43 9 8 -48 1
-142 -18z"/>
<path d="M3898 1693 c7 -3 16 -2 19 1 4 3 -2 6 -13 5 -11 0 -14 -3 -6 -6z"/>
<path d="M3813 1683 c9 -2 23 -2 30 0 6 3 -1 5 -18 5 -16 0 -22 -2 -12 -5z"/>
<path d="M775 1670 c-4 -7 3 -8 22 -4 38 9 42 14 10 14 -14 0 -29 -5 -32 -10z"/>
<path d="M4017 1641 c-4 -17 -3 -21 5 -13 5 5 8 16 6 23 -3 8 -7 3 -11 -10z"/>
<path d="M1045 1640 c-13 -5 -14 -9 -5 -9 8 0 24 4 35 9 13 5 14 9 5 9 -8 0
-24 -4 -35 -9z"/>
<path d="M1250 1619 c0 -5 5 -7 10 -4 6 3 10 8 10 11 0 2 -4 4 -10 4 -5 0 -10
-5 -10 -11z"/>
<path d="M1227 1604 c-3 -4 -21 -10 -39 -14 -29 -7 -30 -8 -7 -9 14 -1 34 6
45 14 10 8 16 15 13 15 -3 0 -8 -3 -12 -6z"/>
<path d="M4003 1595 c-3 -9 -3 -18 -1 -21 3 -3 8 4 11 16 6 23 -1 27 -10 5z"/>
<path d="M1098 1583 c12 -2 30 -2 40 0 9 3 -1 5 -23 4 -22 0 -30 -2 -17 -4z"/>
<path d="M1023 1573 c9 -2 23 -2 30 0 6 3 -1 5 -18 5 -16 0 -22 -2 -12 -5z"/>
<path d="M3873 1573 c9 -2 23 -2 30 0 6 3 -1 5 -18 5 -16 0 -22 -2 -12 -5z"/>
<path d="M968 1563 c6 -2 18 -2 25 0 6 3 1 5 -13 5 -14 0 -19 -2 -12 -5z"/>
<path d="M1055 1530 c-13 -6 -15 -9 -5 -9 8 0 22 4 30 9 18 12 2 12 -25 0z"/>
<path d="M3908 1493 c6 -2 18 -2 25 0 6 3 1 5 -13 5 -14 0 -19 -2 -12 -5z"/>
<path d="M3980 1486 c6 -6 18 -5 32 1 21 10 21 10 -9 9 -19 -1 -28 -5 -23 -10z"/>
<path d="M886 1479 c4 -7 44 0 44 7 0 2 -11 3 -24 2 -14 -1 -23 -5 -20 -9z"/>
<path d="M1205 1469 c-44 -9 -69 -18 -55 -18 29 -1 138 24 147 33 8 7 6 7 -92
-15z"/>
<path d="M3858 1483 c7 -3 16 -2 19 1 4 3 -2 6 -13 5 -11 0 -14 -3 -6 -6z"/>
<path d="M1015 1431 c-33 -10 -78 -29 -99 -44 -50 -35 -36 -35 23 0 25 15 78
35 116 44 39 10 59 18 45 18 -14 0 -52 -8 -85 -18z"/>
<path d="M1358 1428 c5 -5 16 -8 23 -6 8 3 3 7 -10 11 -17 4 -21 3 -13 -5z"/>
<path d="M1286 1405 c-11 -8 -16 -15 -10 -15 5 0 18 7 28 15 11 8 16 15 10 15
-5 0 -18 -7 -28 -15z"/>
<path d="M1409 1389 l-24 -20 28 17 c15 9 27 18 27 20 0 8 -8 4 -31 -17z"/>
<path d="M1195 1344 c-51 -34 -69 -52 -29 -29 35 20 82 54 74 55 -3 0 -23 -12
-45 -26z"/>
<path d="M1275 1255 c-112 -69 -183 -115 -230 -151 -39 -29 23 5 99 55 39 26
108 69 153 95 45 26 87 53 93 61 17 20 20 22 -115 -60z"/>
<path d="M1057 1255 c-20 -14 -37 -28 -37 -31 0 -2 18 8 40 22 35 23 47 34 37
34 -1 0 -19 -11 -40 -25z"/>
<path d="M1364 1231 c-89 -40 -169 -86 -179 -102 -4 -5 17 5 47 24 29 18 88
48 131 67 43 18 80 37 83 41 3 5 4 9 2 8 -2 -1 -39 -18 -84 -38z"/>
<path d="M945 1179 c-57 -38 -99 -73 -65 -54 44 25 119 76 125 85 9 14 7 13
-60 -31z"/>
<path d="M1403 1159 c-35 -22 -66 -45 -69 -51 -4 -6 13 3 37 19 24 17 62 40
84 52 22 11 33 21 25 21 -8 0 -43 -18 -77 -41z"/>
<path d="M1063 1039 c-29 -22 -53 -42 -53 -45 0 -2 25 14 55 37 48 36 62 49
53 49 -2 0 -27 -18 -55 -41z"/>
<path d="M1264 1014 c-18 -14 -18 -15 4 -4 12 6 22 13 22 15 0 8 -5 6 -26 -11z"/>
<path d="M1150 1010 c-8 -5 -10 -10 -5 -10 6 0 17 5 25 10 8 5 11 10 5 10 -5
0 -17 -5 -25 -10z"/>
<path d="M1225 915 c-30 -25 -30 -25 -3 -14 15 7 29 18 32 25 7 18 6 18 -29
-11z"/>
</g>
</svg>
